<?xml version="1.0" encoding="utf-8"?>
<!-- Generator: Adobe Illustrator 16.0.0, SVG Export Plug-In . SVG Version: 6.00 Build 0)  -->
<!DOCTYPE svg PUBLIC "-//W3C//DTD SVG 1.1//EN" "http://www.w3.org/Graphics/SVG/1.1/DTD/svg11.dtd">
<svg version="1.1" id="Calque_1" xmlns="http://www.w3.org/2000/svg" xmlns:xlink="http://www.w3.org/1999/xlink" x="0px" y="0px"
	 width="2259px" height="472px" viewBox="0 0 2259 472" enable-background="new 0 0 2259 472" xml:space="preserve">
<g>
	<path fill="#FFFFFF" d="M765.846,354.082c0.791,1.821,1.494,3.438,2.014,4.622c0.003,0.007,0.198,0.014,0.202,0.021
		c-1.097-2.416-2.071-4.585-2.966-6.576c0.015,0.034,0.027,0.068,0.041,0.104c-0.207-0.457-0.419-0.928-0.613-1.364
		c0.135,0.37,0.277,0.738,0.416,1.106C765.253,352.712,765.554,353.41,765.846,354.082z"/>
	<path fill="#FFFFFF" d="M757.672,335.446C757.523,335.105,757.531,335.125,757.672,335.446L757.672,335.446z"/>
	<path fill="#FFFFFF" d="M757.479,335.446C757.33,335.105,757.339,335.125,757.479,335.446L757.479,335.446z"/>
	<path fill="#FFFFFF" d="M2216.348,167.259c-34.224-12.966-74.739-11.565-83.662-54.14C2124.817,75.578,2109.295,37,2086.931,1
		h-28.104c26.081,38,43.559,80.257,47.227,126.246l1.39,17.112c-0.091-1.133-0.508-6.605-1.39-17.669
		c6.476,81.183-52.477,120.575-127.304,94.982C2087.906,184.316,2070.882,78,2020.256,1h-38.854
		c5.599,7,10.697,12.837,15.203,19.717c23.662,36.134,57.746,167.668-18.43,168.619c1.424-0.082,2.174-0.642,2.372-0.642
		c-0.66,0.001-7.176-0.183-15.002-0.246c-100.246-2.818-190.622-43.829-263.629-112.808c26.063-1.026,199.91,65.461,156.859-33.018
		C1853.848,31.356,1838.035,17,1821.046,1h-52.003c27.461,18,86.092,66.335,36.562,68.263
		c-36.275,1.412-84.908-30.067-112.008-51.619C1687.05,12.439,1680.897,8,1675.079,1h-43.311c12.146,18,26.807,34.971,45.261,50.425
		c-114.792-55.657-245.676,114.486-259.507,212.757c-5.762,40.931-2.138,107.631-40.342,91.848
		c-71.471-29.529,6.586-120.776,26.486-153.85C1445.772,132.209,1508.001,73,1537.396,1h-31.366
		c-18.728,39-92.439,128.787-120.034,164.693c-45.987,65.506-117.574,157.84-32.188,208.818
		c28.953,17.287,77.01,11.683,94.442,44.979c8.303,15.858,9.051,34.51,5.035,53.51h68.126c0.077,0,0.168-2.041,0.24-2.551
		c13.14-94.469-103.285-156.867-37.905-251.402c46.771-67.629,118.545-117.563,201.729-88.55
		c97.546,34.023,178.99,97.312,280.853,125.169c40.067,10.955,84.988,20.532,119.331-10.157
		c40.032-35.771,53.425-50.871,109.491-30.059c22.396,8.314,44.85,20.805,62.85,36.801v-64.792
		C2246,179.586,2231.117,172.854,2216.348,167.259z"/>
	<path fill="#FFFFFF" d="M2075.04,312.56c-86.124-40.175-198.415-53.831-274.874,15.225
		c-67.784,61.224-179.221,49.576-235.086,118.451c-5.609,6.915-11.396,16.765-16.058,26.765h37.007
		c7.377-13,17.957-26.787,27.442-31.439c48.208-23.638,103.636-23.771,152.071-52.409c52.8-31.22,88.118-65.994,153.938-62.204
		c38.797,2.233,101.4,7.569,120.887,48.269c23.756,49.628-18.719,74.023-58.579,87.422c0.231-0.079,0.449-0.184,0.676-0.258
		c0.052-0.02,0.11-0.054,0.168-0.073c1.396-0.469,2.664-0.903,3.813-1.29c0.153-0.052,0.311-0.108,0.469-0.161
		c0.896-0.302,1.694-0.572,2.442-0.821c-0.041,0.014-0.079,0.024-0.121,0.039c-0.715,0.237-1.473,0.493-2.321,0.777
		c-0.155,0.052-0.31,0.104-0.469,0.157c-0.792,0.267-1.537,0.518-2.201,0.741c-0.521,0.175-1.048,0.353-1.61,0.542
		c-0.058,0.018-0.113,0.038-0.168,0.057c-0.281,0.095-0.511,0.171-0.676,0.227c-4.941,2.274-9.884,5.581-14.825,7.854
		C1925.393,354.171,1826.045,433,1753.623,473h37.958c1.903,0,3.841-3.148,5.849-4.154c20.955-10.498,130.63-52.488,125.479,0.988
		c-0.089,0.9-0.228,3.166-0.354,3.166h147.957c11.188-3,20.683-6.632,27.452-7.311c31.444-3.146,81.122-54.282,71.01-87.771
		C2158.897,344.547,2103.108,325.654,2075.04,312.56z"/>
	<path fill="#FFFFFF" d="M1981.79,462.574C1981.362,462.717,1981.409,462.702,1981.79,462.574L1981.79,462.574z"/>
	<path fill="#FFFFFF" d="M1303.252,380.352c-43.294-13.134-73.594,28.685-109.784,23.864c-29.311-3.901,67.328-83.338,76.4-90.576
		c26.344-21.017,34.063-14.235,38.454-45.522c2.587-18.438,17.11-30.854,27.709-44.829C1375.188,171.648,1406.699,126,1423.474,1
		h-185.248c-7.019,7-13.832,11.862-20.402,16.673c-60.272,44.123-124.774,119.93-200.926,62.279
		C1084.069,56.938,1157.051,46,1208.987,1H914.722c-34.358,45-82.903,74.23-119.924,116.272
		C783.31,130.319,690.553,219.17,684.374,159c-2.576-24.934,30.193-10.189,44.113-13.09c29.154-6.078,53.326-31.894,73.984-51.378
		C821.229,76.842,855.698,43,888.425,1h-37.514c-30.854,49-69.614,96.781-118.244,105.909
		c-46.559,8.74-62.065-51.199-109.793-44.807c-34.558,4.629-72.574,23.211-101.84,41.472
		C443.417,152,400.292,227.719,310.847,263.962c-69.692,28.246-133.75,103.38-145.103,179.282C164.285,453,164.497,464,166.196,473
		h35.669c-3.273-10-3.488-22.859,0.259-37.24c18.098-69.498,58.373-100.455,116.844-135.563
		c59.831-35.927,117.205-76.578,168.185-124.399c44.427-41.674,86.293-93.801,155.251-72.166
		c-115.694,33.64-196.628,130.909-293.927,198.052c-3.212,2.098-7.051,4.573-10.895,7.104c-2.344,1.548-4.641,3.128-6.919,4.752
		c-19.355,12.743-11.857,9.045-0.049,1.271C277.552,352.669,242.636,412,254.609,473h34.489c-9.792-26,9.731-70.212,19.264-88.239
		c25.237-47.731,85.504-69.021,126.961-100.274c39.634-29.877,71.49-68.84,111.221-98.211
		c39.561-29.247,84.539-58.993,106.318-7.296c14.141,33.573,49.545,35.721,81.074,30.719
		c-21.025,44.521-52.804,95.401-30.616,145.815c16.559,37.619,15.622,77.978-4.33,113.996c-0.463,0.835-0.949,3.491-1.417,3.491
		h80.394c11.234-10,21.622-22.863,30.266-35.88C832.502,400.563,838.998,355.82,863,319c24.005-36.829,57.719-66.818,95.498-88.951
		c32.967-19.322,89.18,2.112,128.547-13.449c89.918-35.539,129.451-135.207,219.795-172.807
		c66.239-27.521,20.168,80.499,13.15,106.847c-12.263,46.057-28.521,86.885-59.194,123.999
		c-29.669,35.897-183.609,127.609-151.831,181.139c1.973,3.319,8.821,10.224,17.761,17.224h156.584c2.43-2,4.639-5.204,6.57-7.192
		C1311.438,443.651,1355.736,396.271,1303.252,380.352z M764.486,350.79c0.014,0.033,0.023,0.065,0.036,0.097
		c0.194,0.437,0.406,0.907,0.613,1.364c-0.014-0.035-0.026-0.069-0.041-0.104c0.895,1.99,1.869,4.16,2.965,6.576
		c-0.003-0.007-0.198-0.014-0.201-0.021c-0.52-1.184-1.223-2.8-2.014-4.622c-0.292-0.671-0.593-1.369-0.906-2.089
		c0.265,0.696,0.534,1.393,0.811,2.089c0.609,1.539,0.903,3.079,1.579,4.622c0.002,0.008-0.328,0.018-0.328,0.025
		c0-0.001,0,0,0-0.001c0,0.003,0.342,0.006,0.342,0.009c7.326,16.744,2.995,35.721-10.979,47.561
		c-35.878-102.835-12.676-179.063,63.854-260.003C880.013,83.052,991.709-25.222,1085.32,10.54
		c-0.819,0.415-1.626,0.834-2.464,1.259c-0.819,0.415-1.637,0.834-2.475,1.259C973.921,66.885,707.983,196.995,764.486,350.79z
		 M1087.718,180.188c-53.021,22.359-113.856-9.681-159.923,30.447c-9.803,8.581-30.102,26.346-0.146,0.123
		c-46.92,41.071-94.721,80.688-125.284,136.24c-38.327-85.936,70.355-203.116,153.434-220.771
		c50.234-10.674,101.302,25.913,146.812-0.074c43.955-25.094,87.234-51.745,126.689-83.585
		C1190.092,84.096,1140.021,158.128,1087.718,180.188z"/>
	<path fill="#FFFFFF" d="M764.938,351.993c-0.139-0.368-0.281-0.736-0.416-1.106c-0.677-1.5-1.291-2.874-1.854-4.129
		C763.433,348.521,764.205,350.302,764.938,351.993z"/>
	<path fill="#FFFFFF" d="M51.382,463.627c-0.047-0.061-0.088-0.12-0.132-0.182C40.313,449.044,26.914,431.397,51.382,463.627z"/>
	<path fill="#FFFFFF" d="M94.733,382.441c-8.951-67.154,97.974-179.175,140.093-226.632C288.899,94.88,351.651,41,422.17,1H308.051
		c-47.116,40-94.229,81.239-141.348,121.854C196.471,83.277,232.229,40,272.563,1h-44.692
		C168.862,63,115.864,134.833,71.266,196.569C49.023,227.36,22,258.854-1,292.957v59.97c22-47.56,61.489-84.96,94.994-124.765
		C53.15,313.899-21.122,368.469,50.646,463.203c0.03,0.042,0.365,0.087,0.398,0.129c0.011,0.029,0.176,0.063,0.187,0.08
		c0.345,0.452,0.751,0.894,1.071,1.324c0.378,0.521,0.788,2.289,1.155,2.799c1.108,1.711,2.205,5.465,3.223,5.465h0.253
		c6.037,8,4.316,5,0.003,0h82.2C128.174,442,99.328,416.928,94.733,382.441z"/>
	<path fill="#FFFFFF" d="M-1,423.736v42.599V473h5.837h35.627c-2.777-5-7.244-11.066-11.007-15.955
		C21.267,446.409,8,435.099-1,423.736z"/>
	<path fill="#FFFFFF" d="M608.118,22.52C621.17,18.57,633.474,10,645.332,1h-86.825C569.212,19,577.646,31.743,608.118,22.52z"/>
</g>
</svg>
