<?xml version="1.0" encoding="utf-8"?>
<!-- Generator: Adobe Illustrator 16.0.0, SVG Export Plug-In . SVG Version: 6.00 Build 0)  -->
<!DOCTYPE svg PUBLIC "-//W3C//DTD SVG 1.1//EN" "http://www.w3.org/Graphics/SVG/1.1/DTD/svg11.dtd">
<svg version="1.1" id="Calque_1" xmlns="http://www.w3.org/2000/svg" xmlns:xlink="http://www.w3.org/1999/xlink" x="0px" y="0px"
	 width="475.437px" height="475.44px" viewBox="1034.981 299.67 475.437 475.44"
	 enable-background="new 1034.981 299.67 475.437 475.44" xml:space="preserve">
<g>
	<path fill="#FFFFFF" d="M1272.697,773.11c-62.964,0-122.158-24.519-166.678-69.04c-44.52-44.521-69.038-103.716-69.038-166.68
		s24.519-122.159,69.038-166.68c44.521-44.521,103.714-69.041,166.678-69.041c62.966,0,122.161,24.519,166.682,69.041
		c44.521,44.52,69.039,103.715,69.039,166.68s-24.519,122.159-69.039,166.68C1394.858,748.592,1335.663,773.11,1272.697,773.11z
		 M1254.147,678.813c0,7.479,7.024,14.04,15.033,14.04s15.033-6.561,15.033-14.04V561.316h123.89
		c7.777,0,14.041-9.413,14.041-17.206s-6.264-17.205-14.041-17.205h-123.89V401.984c0-7.476-7.024-14.032-15.033-14.032
		s-15.033,6.557-15.033,14.032v124.921h-122.872c-7.775,0-14.036,9.412-14.036,17.205s6.261,17.206,14.036,17.206h122.872V678.813z"
		/>
	<path fill="#FFFFFF" d="M1272.697,303.67c31.556,0,62.164,6.179,90.977,18.365c27.83,11.771,52.826,28.624,74.291,50.089
		c21.466,21.465,38.317,46.461,50.089,74.292c12.186,28.813,18.364,59.42,18.364,90.975s-6.179,62.162-18.364,90.974
		c-11.771,27.831-28.623,52.826-50.089,74.292c-21.465,21.466-46.46,38.318-74.291,50.089
		c-28.813,12.187-59.421,18.365-90.977,18.365c-31.554,0-62.162-6.179-90.974-18.365c-27.83-11.771-52.825-28.623-74.29-50.089
		s-38.317-46.461-50.088-74.292c-12.186-28.812-18.364-59.419-18.364-90.974s6.179-62.162,18.364-90.975
		c11.771-27.83,28.623-52.826,50.088-74.292c21.465-21.466,46.46-38.318,74.29-50.089
		C1210.535,309.849,1241.144,303.67,1272.697,303.67 M1252.147,524.905h-120.872c-9.031,0-16.036,10.324-16.036,19.205
		c0,8.882,7.005,19.206,16.036,19.206h120.872v115.496c0,8.545,7.959,16.04,17.033,16.04s17.033-7.495,17.033-16.04V563.316h121.89
		c9.034,0,16.041-10.324,16.041-19.206c0-8.881-7.007-19.205-16.041-19.205h-121.89V401.984c0-8.541-7.959-16.032-17.033-16.032
		s-17.033,7.491-17.033,16.032V524.905 M1272.697,299.67c-131.291,0-237.716,106.43-237.716,237.721s106.425,237.72,237.716,237.72
		c131.296,0,237.721-106.429,237.721-237.72S1403.993,299.67,1272.697,299.67L1272.697,299.67z M1131.275,559.316
		c-6.644,0-12.036-8.558-12.036-15.206c0-6.647,5.393-15.205,12.036-15.205h124.872V401.984c0-6.648,6.385-12.032,13.033-12.032
		s13.033,5.384,13.033,12.032v126.921h125.89c6.652,0,12.041,8.558,12.041,15.205c0,6.648-5.389,15.206-12.041,15.206h-125.89
		v119.496c0,6.652-6.385,12.04-13.033,12.04s-13.033-5.388-13.033-12.04V559.316H1131.275L1131.275,559.316z"/>
</g>
</svg>
